<svg xmlns="http://www.w3.org/2000/svg" width="41.9" height="32.764">
  <path stroke="#fff" d="M18.7 32.764c-.5 0-1-.2-1.4-.6l-6.5-6.5H2c-1.1 0-2-.9-2-2v-14.6c0-1.1.9-2 2-2h8.8l6.5-6.5c.6-.6 1.4-.7 2.2-.4.7.3 1.2 1 1.2 1.8v28.7c0 .8-.5 1.5-1.2 1.8-.3.2-.6.3-.8.3zM4 21.664h7.6c.5 0 1 .2 1.4.6l3.6 3.6v-19l-3.6 3.6c-.4.4-.9.6-1.4.6H4zm33 .8c-.5 0-1-.2-1.4-.6l-8.2-8.3c-.8-.8-.8-2 0-2.8.8-.8 2-.8 2.8 0l8.2 8.3c.8.8.8 2 0 2.8-.4.4-.9.6-1.4.6z"/>
  <path stroke="#fff" d="M28.7 22.464c-.5 0-1-.2-1.4-.6-.8-.8-.8-2 0-2.8l8.2-8.3c.8-.8 2-.8 2.8 0 .8.8.8 2 0 2.8l-8.2 8.3c-.3.4-.9.6-1.4.6z"/>
</svg>
