<svg xmlns="http://www.w3.org/2000/svg" width="41.9" height="32.764">
  <path stroke="#fff" d="M18.7 32.764c-.5 0-1-.2-1.4-.6l-6.5-6.5H2c-1.1 0-2-.9-2-2v-14.6c0-1.1.9-2 2-2h8.8l6.5-6.5c.6-.6 1.4-.7 2.2-.4.7.3 1.2 1 1.2 1.8v28.7c0 .8-.5 1.5-1.2 1.8-.3.2-.5.3-.8.3zM4 21.664h7.6c.5 0 1 .2 1.4.6l3.6 3.6v-19l-3.6 3.6c-.4.4-.9.6-1.4.6H4zm22.9 2c-1.1 0-2-.9-2-2s.9-2 2-2c1.8 0 3.3-1.5 3.3-3.3 0-1.8-1.5-3.3-3.3-3.3-1.1 0-2-.9-2-2s.9-2 2-2c4 0 7.3 3.3 7.3 7.3s-3.3 7.3-7.3 7.3z"/>
  <path stroke="#fff" d="M26.9 31.364c-1.1 0-2-.9-2-2s.9-2 2-2c6.1 0 11-4.9 11-11s-4.9-11-11-11c-1.1 0-2-.9-2-2s.9-2 2-2c8.3 0 15 6.7 15 15s-6.8 15-15 15z"/>
  <path stroke="#fff" d="M26.9 31.364c-1.1 0-2-.9-2-2s.9-2 2-2c6.1 0 11-4.9 11-11s-4.9-11-11-11c-1.1 0-2-.9-2-2s.9-2 2-2c8.3 0 15 6.7 15 15s-6.8 15-15 15z"/>
</svg>
